<?xml version="1.0" encoding="UTF-8" standalone="no"?>
<!-- Created with Inkscape (http://www.inkscape.org/) -->

<svg
   width="177.30429mm"
   height="23.014439mm"
   viewBox="0 0 177.30429 23.014439"
   version="1.1"
   id="svg1"
   sodipodi:docname="dibujo.svg"
   inkscape:version="1.3.2 (091e20e, 2023-11-25, custom)"
   xmlns:inkscape="http://www.inkscape.org/namespaces/inkscape"
   xmlns:sodipodi="http://sodipodi.sourceforge.net/DTD/sodipodi-0.dtd"
   xmlns="http://www.w3.org/2000/svg"
   xmlns:svg="http://www.w3.org/2000/svg">
  <sodipodi:namedview
     id="namedview1"
     pagecolor="#ffffff"
     bordercolor="#000000"
     borderopacity="0.25"
     inkscape:showpageshadow="2"
     inkscape:pageopacity="0.0"
     inkscape:pagecheckerboard="0"
     inkscape:deskcolor="#d1d1d1"
     inkscape:document-units="mm"
     inkscape:zoom="1.4485269"
     inkscape:cx="133.23881"
     inkscape:cy="115.63471"
     inkscape:window-width="2560"
     inkscape:window-height="1009"
     inkscape:window-x="-8"
     inkscape:window-y="-8"
     inkscape:window-maximized="1"
     inkscape:current-layer="layer1"
     showgrid="false" />
  <defs
     id="defs1" />
  <g
     inkscape:label="Capa 1"
     inkscape:groupmode="layer"
     id="layer1"
     transform="translate(-21.37734,-131.14792)">
    <path
       d="m 37.439291,131.35149 -16.304751,0.087 0.08634,16.17934 q 0.01525,2.85702 1.381581,4.79131 1.432984,2.02864 3.307093,2.01864 l 11.65255,-0.0622 -0.02797,-5.24053 -11.65255,0.0622 q -0.451991,0.002 -0.696376,-0.34357 -0.288819,-0.40887 -0.29143,-0.8982 l -0.06014,-11.27028 12.633702,-0.0674 z m 2.291174,16.16757 q 0.01525,2.85702 1.38158,4.79131 1.421961,2.0287 3.307093,2.01864 l 8.356323,-0.0446 q 1.885134,-0.0101 3.285362,-2.05382 1.345612,-1.94876 1.330366,-4.80578 l -0.08634,-16.17934 -13.008524,0.0694 q -1.885133,0.0101 -3.285361,2.05382 -1.345612,1.94876 -1.330366,4.80579 z m 3.61933,-9.71141 q -0.0025,-0.47354 0.281827,-0.90126 0.262727,-0.34866 0.69267,-0.35096 l 1.124466,-0.006 8.4e-5,0.0158 8.213008,-0.0438 0.06014,11.27028 q 0.0025,0.47354 -0.281827,0.90125 -0.262727,0.34869 -0.69267,0.35098 l -1.124465,0.006 -8.5e-5,-0.0158 -6.107391,0.0326 8.4e-5,0.0158 -1.124466,0.006 q -0.429942,0.002 -0.696375,-0.34356 -0.288903,-0.42465 -0.29143,-0.8982 z m 17.537331,-4.62393 q -1.356636,1.94882 -1.341811,4.72693 l 0.08718,16.33718 3.693097,-0.0197 -0.08735,-16.36874 q -0.003,-0.56826 0.281406,-0.98019 0.284438,-0.41193 0.681308,-0.41405 l 4.078945,-0.0218 0.09476,17.7578 3.67105,-0.0196 -0.09476,-17.7578 5.027022,-0.0268 0.09476,17.7578 3.693097,-0.0197 -0.122812,-23.01411 -16.470113,0.0879 q -1.940255,0.0103 -3.285783,1.97489 z m 36.232013,3.10576 0.02552,4.78276 q 0.0034,0.6314 -0.270129,1.02749 -0.306314,0.44361 -0.670118,0.44555 l -9.624096,0.0514 -0.02569,-4.81434 q -0.0032,-0.59982 0.270298,-0.99591 0.295291,-0.44355 0.670109,-0.44555 z m -12.904692,-3.19866 q -1.345444,1.98032 -1.330872,4.71107 l 0.0871,16.3214 3.671052,-0.0196 -0.03336,-6.25076 9.624096,-0.0513 q 1.907184,-0.0102 3.252631,-1.99051 1.345444,-1.98032 1.330624,-4.75843 l -0.0536,-10.03908 -13.295155,0.071 q -1.918198,0.0102 -3.252538,2.0063 z m 22.423583,-2.1086 -3.67106,0.0196 0.0863,16.17934 q 0.0153,2.85702 1.38158,4.79131 1.43299,2.02864 3.3071,2.01864 l 11.65255,-0.0622 -0.028,-5.24052 -11.65255,0.0622 q -0.45199,0.002 -0.69637,-0.34356 -0.28882,-0.40887 -0.29143,-0.8982 z m 31.14328,-0.1662 -16.30475,0.087 0.0863,16.17934 q 0.0152,2.85702 1.38158,4.79131 1.43298,2.02864 3.30709,2.01864 l 11.65255,-0.0622 -0.028,-5.24052 -11.65256,0.0622 q -0.45199,0.002 -0.69638,-0.34356 -0.28881,-0.40887 -0.29142,-0.8982 l -0.0127,-2.38349 12.6337,-0.0674 -0.0281,-5.2721 -12.63371,0.0674 -0.0193,-3.61469 12.63371,-0.0674 z m 16.81187,-0.0897 -4.98937,9.15045 -5.08673,-9.09668 -4.53094,0.0242 6.41134,11.47317 -6.28852,11.54094 4.53093,-0.0242 4.98936,-9.15046 5.08674,9.09669 4.53093,-0.0242 -6.41133,-11.47318 6.28852,-11.54094 z m 10.50166,17.71806 9.58001,-0.0511 q 0.44096,-0.002 0.69267,-0.35098 0.28443,-0.41193 0.28182,-0.90126 l -0.0882,-16.52659 3.67105,-0.0196 0.0863,16.17935 q 0.0152,2.85702 -1.33036,4.80578 -1.40024,2.04376 -3.28537,2.05382 l -13.25106,0.0707 -0.12281,-23.01412 3.67106,-0.0196 z m 33.37862,-8.92311 -13.53768,0.0722 -0.012,-2.25722 q -0.003,-0.50511 0.35825,-1.04372 0.32819,-0.47531 0.78018,-0.47773 l 12.39117,-0.0661 -0.0281,-5.25632 -12.39117,0.0661 q -1.8741,0.01 -3.25254,2.00629 -1.32373,1.91707 -1.3084,4.78988 l 0.0384,7.19783 13.09671,-0.0699 0.0131,2.44664 q -0.0528,0.42647 -0.34814,0.87004 -0.3282,0.47531 -0.78019,0.47772 l -11.9502,0.0638 0.0281,5.25631 12.39117,-0.0661 q 1.87411,-0.01 3.25254,-2.00628 1.32373,-1.91708 1.3084,-4.78989 z"
       id="text1"
       style="font-size:27.0164px;font-family:'United Kingdom';-inkscape-font-specification:'United Kingdom';fill:#00fcff;stroke-width:0.316597"
       aria-label="ComPlexus" />
  </g>
</svg>
